<?xml version="1.0" encoding="utf-8"?>
<!-- Generator: Adobe Illustrator 16.0.0, SVG Export Plug-In . SVG Version: 6.00 Build 0)  -->
<!DOCTYPE svg PUBLIC "-//W3C//DTD SVG 1.1//EN" "http://www.w3.org/Graphics/SVG/1.1/DTD/svg11.dtd">
<svg version="1.1" id="Layer_1" xmlns="http://www.w3.org/2000/svg" xmlns:xlink="http://www.w3.org/1999/xlink" x="0px" y="0px"
	 width="55px" height="55px" viewBox="0 0 55 55" enable-background="new 0 0 55 55" xml:space="preserve">
<path fill="#82b53b" d="M55,27.5C55,42.7,42.7,55,27.5,55C12.3,55,0,42.7,0,27.5S12.3,0,27.5,0C42.7,0,55,12.3,55,27.5"/>
<path fill="#659621" d="M18.8,36.6l17.1,17.1c8.3-2.7,14.9-9.2,17.7-17.5L36.4,18.9L18.8,36.6z"/>
<path fill="#FFFFFF" d="M40.1,27.7c0,6.9-5.6,12.5-12.5,12.5c-6.9,0-12.5-5.6-12.5-12.5c0-6.9,5.6-12.5,12.5-12.5
	C34.5,15.2,40.1,20.8,40.1,27.7"/>
<path fill="#E46A5D" d="M39.1,27.7c0,6.4-5.2,11.6-11.6,11.6"/>
<path fill="#E46A5D" d="M27.6,39.3c-6.4,0-11.6-5.2-11.6-11.6c0-6.4,5.2-11.6,11.6-11.6c6.4,0,11.6,5.2,11.6,11.6"/>
<polygon fill="#FFFFFF" points="18.8,27.7 21.2,25.3 27.5,30.8 34.5,21.4 37.1,26.3 27.5,35.6 "/>
</svg>
