<?xml version="1.0" encoding="utf-8"?>
<!-- Generator: Adobe Illustrator 16.0.0, SVG Export Plug-In . SVG Version: 6.00 Build 0)  -->
<!DOCTYPE svg PUBLIC "-//W3C//DTD SVG 1.1//EN" "http://www.w3.org/Graphics/SVG/1.1/DTD/svg11.dtd">
<svg version="1.1" id="Layer_1" xmlns="http://www.w3.org/2000/svg" xmlns:xlink="http://www.w3.org/1999/xlink" x="0px" y="0px"
	 width="55px" height="55px" viewBox="0 0 55 55" enable-background="new 0 0 55 55" xml:space="preserve">
<path fill="#F27563" d="M55,27.5C55,42.7,42.7,55,27.5,55C12.3,55,0,42.7,0,27.5C0,12.3,12.3,0,27.5,0C42.7,0,55,12.3,55,27.5"/>
<path fill="#D1695B" d="M15.1,40l14.8,14.9c12.9-1.1,23.3-11.2,24.9-23.9L40.1,16.2L15.1,40z"/>
<path fill="#1F2136" d="M15.1,40c-0.2-0.2-0.2-0.6,0-0.8l1.8-1.8c0.2-0.2,0.6-0.2,0.8,0c0.2,0.2,0.2,0.6,0,0.8L16,40
	C15.7,40.2,15.4,40.2,15.1,40"/>
<path fill="#F1B14F" d="M36.4,15.3c-5.5-0.4-7.3,3.7-8.1,5.4c-0.1,0.3-0.2,0.6-0.3,0.7c-0.1,0.2-0.5,0.6-1.5,1
	c-0.3,0.1-0.4,0.5-0.3,0.8c0,0,0,0,0,0c0,0.1,0.1,0.1,0.1,0.2c0.2,0.2,0.4,0.2,0.7,0.1c1-0.5,1.7-0.9,2-1.4c0.1-0.2,0.3-0.5,0.4-0.9
	c0.8-1.8,2.2-5.1,6.9-4.7c0.3,0,0.5-0.1,0.6-0.4c0-0.1,0-0.1,0-0.2C37,15.6,36.7,15.3,36.4,15.3"/>
<path fill="#1F2136" d="M38,19.1c-0.2,0.2-0.5,0.2-0.8-0.1l-1.2-1.2c-0.2-0.2-0.2-0.6,0-0.8l2.1-2.1c0.2-0.2,0.5-0.2,0.8,0l1.2,1.2
	c0.2,0.2,0.2,0.6,0.1,0.8L38,19.1z"/>
<path fill="#F1B14F" d="M37.7,21.4l-4-4l2.2-2.2c0.4-0.4,1.1-0.3,1.5,0.1l2.4,2.4c0.4,0.4,0.5,1.1,0.1,1.5L37.7,21.4z"/>
<rect x="24.4" y="27.3" transform="matrix(0.7069 0.7073 -0.7073 0.7069 27.6842 -11.1234)" fill="#F1B14F" width="5.7" height="1"/>
<polygon fill="#1F2136" points="29.6,29.6 37.8,21.3 33.8,17.3 25.5,25.6 "/>
<path fill="#1F2136" d="M25,26.1c-3.1,3.1-5.7,6.2-7.4,8.6c0,0,0,0,0,0l2.8,2.8c0,0,0,0,0,0c2.4-1.6,5.5-4.2,8.6-7.4L25,26.1z"/>
<path fill="#F1B14F" d="M16.6,39.3C16.6,39.3,16.6,39.3,16.6,39.3c0.8-0.1,2.2-0.7,3.8-1.9l-2.8-2.8c-1.1,1.7-1.8,3-1.9,3.8
	c0,0,0,0,0,0L16.6,39.3z"/>
</svg>
