<?xml version="1.0" encoding="utf-8"?>
<!-- Generator: Adobe Illustrator 16.0.0, SVG Export Plug-In . SVG Version: 6.00 Build 0)  -->
<!DOCTYPE svg PUBLIC "-//W3C//DTD SVG 1.1//EN" "http://www.w3.org/Graphics/SVG/1.1/DTD/svg11.dtd">
<svg version="1.1" id="Layer_1" xmlns="http://www.w3.org/2000/svg" xmlns:xlink="http://www.w3.org/1999/xlink" x="0px" y="0px"
	 width="55px" height="55px" viewBox="0 0 55 55" enable-background="new 0 0 55 55" xml:space="preserve">
<path fill="#85C2C9" d="M27.5,55C12.3,55,0,42.7,0,27.5S12.3,0,27.5,0C42.7,0,55,12.3,55,27.5"/>
<path fill="#85C2C9" d="M55,27.5C55,42.7,42.7,55,27.5,55"/>
<path fill="#74A4AB" d="M18.8,36.4L36,53.6c8.4-2.7,14.9-9.3,17.6-17.7L36.5,18.8L18.8,36.4z"/>
<path fill="#FFFFFF" d="M40,27.5C40,34.4,34.4,40,27.5,40C20.6,40,15,34.4,15,27.5S20.6,15,27.5,15C34.4,15,40,20.6,40,27.5"/>
<path fill="#E46A5D" d="M27.5,39.1c-6.4,0-11.6-5.2-11.6-11.6c0-6.4,5.2-11.6,11.6-11.6c6.4,0,11.6,5.2,11.6,11.6
	C39.1,33.9,33.9,39.1,27.5,39.1"/>
<polygon fill="#FFFFFF" points="33.5,23.6 31.4,21.5 27.5,25.4 23.6,21.5 21.5,23.6 25.4,27.5 21.5,31.4 23.6,33.5 27.5,29.6 
	31.4,33.5 33.5,31.4 29.6,27.5 "/>
</svg>
