<?xml version="1.0" encoding="utf-8"?>
<!-- Generator: Adobe Illustrator 16.0.0, SVG Export Plug-In . SVG Version: 6.00 Build 0)  -->
<!DOCTYPE svg PUBLIC "-//W3C//DTD SVG 1.1//EN" "http://www.w3.org/Graphics/SVG/1.1/DTD/svg11.dtd">
<svg version="1.1" id="Layer_1" xmlns="http://www.w3.org/2000/svg" xmlns:xlink="http://www.w3.org/1999/xlink" x="0px" y="0px"
	 width="66.1px" height="61px" viewBox="0 0 66.1 61" enable-background="new 0 0 66.1 61" xml:space="preserve">
<text transform="matrix(1 0 0 1 1.3853 54.7974)" display="none"><tspan x="0" y="0" display="inline" font-family="'CheddarJack'" font-size="72">C</tspan><tspan x="49.9" y="0" display="inline" font-family="'CheddarJack'" font-size="72" letter-spacing="-7"> </tspan><tspan x="56.2" y="0" display="inline" font-family="'CheddarJack'" font-size="72">anvs</tspan></text>
<path stroke="#000000" stroke-miterlimit="10" d="M38.6,16.5c0,0-0.4,5.6,3.6,0.3c2.4-3.2,6.1-11.8-8.8-14.6S-1.8,27.7,1.4,43.8
	s16.7,17.7,29.9,13.9c17.1-4.9,10.2-9.5,1.8-12.6c0,0-11.7,5.9-18.5-3.8C11,33,13,16.8,29.6,8.6C29.6,8.6,43.8,4.3,38.6,16.5z"/>
<g>
	<path d="M26,48.8c3.7-2.9,9.2-4.5,11.1-12.4c0,0,8.3,7.6,27.3,1.5c0,0-18.5,17.3-17.3,22.1c0,0-6-3.9-15.8-2.3
		C31.3,57.7,19.9,53.6,26,48.8z"/>
	<path d="M25.8,48.6c1.1-0.9,2.4-1.6,3.6-2.4c0.6-0.4,1.2-0.8,1.8-1.2c0.6-0.4,1.1-0.9,1.6-1.4l0.7-0.8l0.7-0.8l0.6-0.9
		c0.2-0.3,0.4-0.6,0.5-0.9c0.2-0.3,0.3-0.6,0.5-0.9c0.2-0.3,0.3-0.6,0.4-1c0.3-0.7,0.4-1.3,0.6-2L37,36l0.2,0.2
		c0.9,0.7,1.9,1.3,3,1.8c1.1,0.5,2.2,0.9,3.3,1.2c2.3,0.6,4.6,0.9,7,0.9c2.3,0,4.7-0.2,7-0.6c1.2-0.2,2.3-0.5,3.4-0.7
		c1.1-0.3,2.3-0.6,3.4-1l0.6-0.2l-0.4,0.4c-3.5,3.3-6.8,6.6-10,10.2c-1.6,1.8-3.1,3.6-4.5,5.5c-0.7,1-1.4,2-1.9,3
		c-0.3,0.5-0.5,1.1-0.7,1.6c-0.2,0.6-0.3,1.2-0.2,1.7l0,0.2L47,60c-1.2-0.7-2.4-1.2-3.7-1.6c-0.6-0.2-1.3-0.4-2-0.5
		c-0.7-0.2-1.3-0.3-2-0.4c-0.7-0.1-1.3-0.2-2-0.2c-0.7,0-1.4-0.1-2,0c-0.7,0-1.4,0.1-2,0.1c-0.3,0-0.7,0-1,0l-1,0h0h0
		c-1,0-2-0.8-3-1.3c-1-0.5-1.9-1.1-2.7-1.9c-0.4-0.4-0.8-0.8-1-1.3c-0.3-0.5-0.4-1-0.4-1.6c0-0.3,0.1-0.5,0.2-0.8
		c0.1-0.3,0.2-0.5,0.4-0.7c0.3-0.5,0.7-0.8,1.2-1.2L25.8,48.6z M26,48.8c-0.4,0.4-0.8,0.7-1.2,1.2c-0.2,0.2-0.3,0.5-0.4,0.7
		c-0.1,0.3-0.2,0.5-0.2,0.8c0,0.6,0.1,1.1,0.4,1.6c0.3,0.5,0.6,0.9,1,1.3c0.8,0.8,1.7,1.3,2.7,1.8c1,0.5,2,1.3,3,1.3h0l1,0
		c0.3,0,0.7-0.1,1-0.1c0.7,0,1.4-0.1,2-0.1c0.7,0,1.4,0,2,0c0.7,0,1.4,0.1,2,0.2c0.7,0.1,1.3,0.2,2,0.3c0.7,0.1,1.3,0.3,2,0.5
		c1.3,0.4,2.6,0.9,3.8,1.6L47,60c-0.1-0.6,0-1.2,0.2-1.8c0.2-0.6,0.4-1.1,0.7-1.6c0.6-1.1,1.2-2.1,1.9-3c1.4-1.9,2.9-3.8,4.5-5.5
		c3.2-3.6,6.5-7,9.9-10.2l0.1,0.2c-1.1,0.4-2.3,0.7-3.4,1c-1.1,0.3-2.3,0.5-3.5,0.8c-1.2,0.2-2.3,0.4-3.5,0.5
		c-1.2,0.1-2.4,0.2-3.5,0.2c-2.4,0-4.7-0.3-7-0.9c-1.1-0.3-2.3-0.7-3.4-1.2c-1.1-0.5-2.1-1.1-3.1-1.8l0.3-0.1
		c-0.2,0.7-0.4,1.4-0.6,2.1c-0.1,0.3-0.2,0.7-0.4,1c-0.2,0.3-0.3,0.7-0.5,1c-0.2,0.3-0.4,0.6-0.6,0.9l-0.6,0.9l-0.7,0.8l-0.8,0.8
		c-0.5,0.5-1.1,1-1.7,1.4c-0.6,0.4-1.2,0.8-1.8,1.2c-1.2,0.8-2.4,1.5-3.5,2.4L26,48.8z"/>
</g>
<path fill="#FFFFFF" d="M44.5,46.3c0,0,12.7-4,19.8-8.5c0,0-13.8,7.8-18.6,10.8L44.5,46.3z"/>
<circle fill="#FFFFFF" cx="46.4" cy="46.7" r="2"/>
</svg>
