<?xml version="1.0" encoding="utf-8"?>
<!-- Generator: Adobe Illustrator 16.0.0, SVG Export Plug-In . SVG Version: 6.00 Build 0)  -->
<!DOCTYPE svg PUBLIC "-//W3C//DTD SVG 1.1//EN" "http://www.w3.org/Graphics/SVG/1.1/DTD/svg11.dtd">
<svg version="1.1" id="Layer_1" xmlns="http://www.w3.org/2000/svg" xmlns:xlink="http://www.w3.org/1999/xlink" x="0px" y="0px"
	 width="176.3px" height="61px" viewBox="0 0 176.3 61" enable-background="new 0 0 176.3 61" xml:space="preserve">
<text transform="matrix(1 0 0 1 1.3853 54.7974)" display="none"><tspan x="0" y="0" display="inline" font-family="'CheddarJack'" font-size="72">C</tspan><tspan x="49.9" y="0" display="inline" font-family="'CheddarJack'" font-size="72" letter-spacing="-7"> </tspan><tspan x="56.2" y="0" display="inline" font-family="'CheddarJack'" font-size="72">anvs</tspan></text>
<path stroke="#000000" stroke-miterlimit="10" d="M39.9,16c0,0,0.2,4.2,2.3,0.8s5.7-12.7-9.2-15.5S-1.8,27.7,1.4,43.8
	s14.7,18.3,27.9,14.5c17.1-4.9,20.3-16.3,11.3-12.1c0,0-22.9,13.9-31.3,2C5,41.7,11.1,10.8,29.5,6C29.5,6,45.1,3.8,39.9,16z"/>
<path stroke="#000000" stroke-miterlimit="10" d="M74.1,50c-1.3,6.4,4.9,0,4.9,0c4.5-3.9,1.6,2.3,1.6,2.3c-10.6,12.5-11-2.5-11-2.5
	c-4,3.5-8.8,8.9-11.4,0.9s5.4-18.4,5.4-18.4C71.4,24.2,74,35,74,35C79.5,34,75.4,43.6,74.1,50z M72.1,35.6c0,0-1.5-5.4-6,0
	s-6.1,21.4,3,5.1L72.1,35.6z"/>
<path stroke="#000000" stroke-miterlimit="10" d="M84.1,33.3c0,0,0.7,4.1-0.9,8.1c0,0-1.3,4.6-2.9,7.7s2.5,10.6,6.4,1.7
	s7.1-12,7.1-12s-3.9,23.8,11,14c0,0,2.1-3.5-0.6-2.6s-6.4,4.3-6.1-3.1c0,0,3-17.1,0.5-17.1s-2.3-5.4-10.9,8.2
	C87.8,38.1,87.4,28.3,84.1,33.3z"/>
<path stroke="#000000" stroke-miterlimit="10" d="M105,31.5c0,0,2.2,2.8,0.7,8.4s-1.1,14.8,0.5,15.2s5.8,3.4,9-2.5
	s15.1-27.9,15.1-27.9s0.1-5.6-3.4-0.6s-16.9,26.1-16.9,26.1s0.4-16.8-1.8-19.5C108.4,30.8,105.9,28.3,105,31.5z"/>
<path stroke="#000000" stroke-miterlimit="10" d="M124.8,43.4c0,0,3.7-6.8,9.3-13.5s2.7-4.7,3.5-5.5s4-1.5,3.7,2.5s-2.6,9.5,0,14.5
	s3.1,23.6-9.9,17.3c0,0-7.7-5.4,5.5-11.3s18.8-8.8,24-4s9.3,4.3,12.8,2.6c0,0-5.7,5.8-14.2,0.2s-12.7,1.2-17.5,2.7s-5,2.2-7.3-12.8
	c0,0-5.3,3.7-6.8,7.4S123.2,46,124.8,43.4z"/>
<g>
	<path d="M28.6,51.8c3.7-1.7,8.3-4.6,9.8-11.9c0,0,6.6,6.5,18.1,1.2c0,0-11,11.2-9.7,16c0,0-5-2.9-14.8,0.8
		C32,58,21.6,55.1,28.6,51.8z"/>
	<path d="M28.5,51.6c1.2-0.6,2.4-1.2,3.5-1.9c0.5-0.4,1.1-0.8,1.5-1.2c0.5-0.4,0.9-0.9,1.4-1.4c0.4-0.5,0.8-1,1.2-1.6l0.5-0.9
		l0.4-0.9c0.1-0.3,0.3-0.6,0.4-0.9c0.1-0.3,0.2-0.6,0.3-0.9c0.2-0.6,0.3-1.3,0.5-1.9l0.1-0.3l0.3,0.2c0.6,0.5,1.2,1,1.9,1.4
		c0.7,0.4,1.4,0.7,2.1,1c1.5,0.5,3.1,0.8,4.6,0.9c1.6,0.1,3.2-0.1,4.7-0.5c0.8-0.2,1.5-0.4,2.3-0.7c0.8-0.3,1.5-0.6,2.2-0.9l0.6-0.3
		l-0.5,0.5c-2.2,2.3-4.3,4.7-6.2,7.3c-0.9,1.3-1.8,2.6-2.5,4.1c-0.2,0.4-0.3,0.7-0.5,1.1c-0.1,0.4-0.3,0.7-0.4,1.1
		c-0.1,0.4-0.2,0.8-0.2,1.2c0,0.4,0,0.8,0.1,1.2l0,0.1l-0.1-0.1c-1.1-0.6-2.4-0.8-3.6-1c-0.6-0.1-1.3-0.1-1.9-0.1
		c-0.3,0-0.6,0-0.9,0c-0.3,0-0.6,0-0.9,0.1c-0.6,0-1.3,0.1-1.9,0.2c-0.6,0.1-1.2,0.3-1.9,0.4c-0.6,0.2-1.2,0.3-1.8,0.5L32,58l0,0
		l0,0c-0.9-0.3-1.7-0.6-2.5-0.9c-0.8-0.4-1.6-0.8-2.3-1.3c-0.3-0.3-0.7-0.6-0.8-1c-0.2-0.4-0.1-0.9,0.1-1.3c0.5-0.7,1.4-1.2,2.2-1.6
		L28.5,51.6z M28.6,51.8c-0.8,0.4-1.6,0.8-2.2,1.6c-0.3,0.4-0.3,0.9-0.1,1.3c0.2,0.4,0.5,0.7,0.8,1c0.7,0.6,1.5,0.7,2.3,1.1
		c0.8,0.4,1.7,0.7,2.5,0.7h0l1.8-0.4c0.6-0.2,1.2-0.2,1.8-0.4c0.6-0.1,1.2-0.3,1.9-0.3c0.6-0.1,1.2-0.2,1.9-0.2c0.3,0,0.6,0,0.9-0.1
		c0.3,0,0.6,0,0.9,0c0.6,0,1.3,0,1.9,0.1c1.3,0.2,2.5,0.4,3.7,1l-0.1,0.1c-0.1-0.4-0.1-0.8-0.1-1.2c0-0.4,0.1-0.8,0.2-1.2
		c0.1-0.4,0.2-0.8,0.4-1.1c0.1-0.4,0.3-0.7,0.5-1.1c0.7-1.4,1.6-2.8,2.5-4.1c1.9-2.6,4-5.1,6.2-7.4l0.2,0.2
		c-0.7,0.3-1.5,0.6-2.2,0.9c-0.8,0.3-1.5,0.5-2.3,0.7c-1.6,0.4-3.2,0.6-4.8,0.5c-1.6-0.1-3.2-0.3-4.8-0.9c-0.8-0.3-1.5-0.6-2.2-1
		c-0.7-0.4-1.4-0.9-2-1.4l0.3-0.1c-0.2,0.7-0.3,1.3-0.5,2c-0.1,0.3-0.2,0.6-0.3,1c-0.1,0.3-0.2,0.6-0.4,0.9l-0.4,0.9l-0.5,0.9
		c-0.4,0.6-0.8,1.1-1.2,1.6c-0.4,0.5-0.9,1-1.4,1.5c-0.5,0.5-1,0.9-1.6,1.3c-1.1,0.8-2.3,1.4-3.5,2L28.6,51.8z"/>
</g>
<path fill="#FFFFFF" d="M44.8,46.9c0,0,4.2-1.1,11.4-5.6c0,0-6,3.9-10.8,6.9L44.8,46.9z"/>
<circle fill="#FFFFFF" cx="44.7" cy="47.8" r="1.3"/>
</svg>
