<?xml version="1.0" encoding="utf-8"?>
<!-- Generator: Adobe Illustrator 16.0.0, SVG Export Plug-In . SVG Version: 6.00 Build 0)  -->
<!DOCTYPE svg PUBLIC "-//W3C//DTD SVG 1.1//EN" "http://www.w3.org/Graphics/SVG/1.1/DTD/svg11.dtd">
<svg version="1.1" id="Layer_1" xmlns="http://www.w3.org/2000/svg" xmlns:xlink="http://www.w3.org/1999/xlink" x="0px" y="0px"
	 width="57.7px" height="61px" viewBox="0 0 57.7 61" enable-background="new 0 0 57.7 61" xml:space="preserve">
<text transform="matrix(1 0 0 1 1.3853 54.7974)" display="none"><tspan x="0" y="0" display="inline" font-family="'CheddarJack'" font-size="72">C</tspan><tspan x="49.9" y="0" display="inline" font-family="'CheddarJack'" font-size="72" letter-spacing="-7"> </tspan><tspan x="56.2" y="0" display="inline" font-family="'CheddarJack'" font-size="72">anvs</tspan></text>
<path stroke="#000000" stroke-miterlimit="10" d="M39.9,16c0,0,0.2,4.2,2.3,0.8s5.7-12.7-9.2-15.5S-1.8,27.7,1.4,43.8
	s14.7,18.3,27.9,14.5c17.1-4.9,20.3-16.3,11.3-12.1c0,0-21.4,10.5-29.8-1.5c-4.2-6.6,0.4-34,18.7-38.8C29.5,6,45.1,3.8,39.9,16z"/>
<g>
	<path d="M28,50.1c5.8-1.7,8.9-2.9,10.4-10.1c0,0,6.6,6.5,18.1,1.2c0,0-11,11.2-9.7,16c0,0-5-2.9-14.8,0.8C32,58,20.6,52.2,28,50.1z
		"/>
	<path d="M27.9,49.9c1.3-0.4,2.5-0.7,3.7-1.2c0.6-0.2,1.2-0.5,1.7-0.8c0.3-0.2,0.6-0.3,0.8-0.5c0.3-0.2,0.5-0.4,0.7-0.6
		c0.2-0.2,0.5-0.4,0.7-0.7c0.2-0.2,0.4-0.5,0.6-0.8c0.2-0.3,0.3-0.5,0.5-0.8c0.2-0.3,0.3-0.6,0.4-0.9c0.1-0.3,0.2-0.6,0.4-0.9
		c0.1-0.3,0.2-0.6,0.3-0.9c0.2-0.6,0.3-1.3,0.5-1.9l0.1-0.3l0.3,0.2c0.6,0.5,1.2,1,1.9,1.4c0.7,0.4,1.4,0.7,2.1,1
		c1.5,0.5,3.1,0.8,4.6,0.9c1.6,0.1,3.2-0.1,4.7-0.5c0.8-0.2,1.5-0.4,2.3-0.7c0.8-0.3,1.5-0.6,2.2-0.9l0.6-0.3l-0.5,0.5
		c-2.2,2.3-4.3,4.7-6.2,7.3c-0.9,1.3-1.8,2.6-2.5,4.1c-0.2,0.4-0.3,0.7-0.5,1.1c-0.1,0.4-0.3,0.7-0.4,1.1c-0.1,0.4-0.2,0.8-0.2,1.2
		c0,0.4,0,0.8,0.1,1.2l0,0.1l-0.1-0.1c-1.1-0.6-2.4-0.8-3.6-1c-0.6-0.1-1.3-0.1-1.9-0.1c-0.3,0-0.6,0-0.9,0c-0.3,0-0.6,0-0.9,0.1
		c-0.6,0-1.3,0.1-1.9,0.2c-0.6,0.1-1.2,0.3-1.9,0.4c-0.6,0.2-1.2,0.3-1.8,0.5L32,58l0,0l0,0c-1.8-1-3.6-2.1-5.2-3.5
		c-0.4-0.4-0.7-0.8-1-1.2c-0.3-0.4-0.5-1-0.3-1.5c0.1-0.5,0.6-0.9,1-1.1c0.5-0.3,0.9-0.4,1.4-0.6L27.9,49.9z M26.3,50.9
		c-0.3,0.2-0.6,0.6-0.7,1c-0.1,0.5,0.1,1,0.3,1.5c0.3,0.4,0.6,0.6,1,0.9c1.5,1.4,3.3,3.2,5.2,3.2h0l1.8-0.4c0.6-0.2,1.2-0.2,1.8-0.4
		c0.6-0.1,1.2-0.3,1.9-0.3c0.6-0.1,1.2-0.2,1.9-0.2c0.3,0,0.6,0,0.9-0.1c0.3,0,0.6,0,0.9,0c0.6,0,1.3,0,1.9,0.1
		c1.3,0.2,2.5,0.4,3.7,1l-0.1,0.1c-0.1-0.4-0.1-0.8-0.1-1.2c0-0.4,0.1-0.8,0.2-1.2c0.1-0.4,0.2-0.8,0.4-1.1c0.1-0.4,0.3-0.7,0.5-1.1
		c0.7-1.4,1.6-2.8,2.5-4.1c1.9-2.6,4-5.1,6.2-7.4l0.2,0.2c-0.7,0.3-1.5,0.6-2.2,0.9c-0.8,0.3-1.5,0.5-2.3,0.7
		c-1.6,0.4-3.2,0.6-4.8,0.5c-1.6-0.1-3.2-0.3-4.8-0.9c-0.8-0.3-1.5-0.6-2.2-1c-0.7-0.4-1.4-0.9-2-1.4l0.3-0.1
		c-0.1,0.6-0.3,1.3-0.5,1.9c-0.1,0.3-0.2,0.6-0.3,0.9c-0.1,0.3-0.2,0.6-0.4,0.9c-0.1,0.3-0.3,0.6-0.4,0.9c-0.2,0.3-0.3,0.6-0.5,0.9
		c-0.2,0.3-0.4,0.6-0.6,0.8c-0.2,0.3-0.4,0.5-0.7,0.7c-0.2,0.2-0.5,0.4-0.8,0.6c-0.3,0.2-0.6,0.4-0.8,0.5c-0.6,0.3-1.2,0.6-1.8,0.9
		c-1.2,0.5-2.5,0.9-3.7,1.2L26.3,50.9z"/>
</g>
<path fill="#FFFFFF" d="M44.8,46.9c0,0,4.2-1.1,11.4-5.6c0,0-6,3.9-10.8,6.9L44.8,46.9z"/>
<circle fill="#FFFFFF" cx="44.7" cy="47.8" r="1.3"/>
</svg>
